<svg width="22" height="21" fill="none" xmlns="http://www.w3.org/2000/svg"><path d="M7.008 7.918c-1.171 0-2.17.72-2.54 1.721H0v1.722h4.467c.37 1.001 1.37 1.721 2.54 1.721 1.172 0 2.17-.72 2.542-1.721H23V9.639H9.549c-.371-1.001-1.37-1.721-2.541-1.721zm0 3.443c-.496 0-.899-.386-.899-.861s.403-.86.899-.86c.495 0 .898.385.898.86s-.403.86-.898.86zm12.064-9.64C18.702.72 17.702 0 16.532 0c-1.172 0-2.17.72-2.541 1.721H0v1.722h13.99c.371 1.001 1.37 1.72 2.541 1.72 1.172 0 2.17-.719 2.541-1.72H23V1.72h-3.928zm-2.54 1.722c-.496 0-.9-.386-.9-.861s.404-.86.9-.86c.495 0 .898.385.898.86s-.403.86-.899.86zm-1.708 12.393c-1.171 0-2.17.72-2.54 1.721H0v1.722h12.284c.37 1.001 1.369 1.721 2.54 1.721s2.17-.72 2.54-1.721H23v-1.722h-5.635c-.37-1.001-1.37-1.72-2.54-1.72zm0 3.443c-.495 0-.898-.386-.898-.861 0-.474.403-.86.898-.86.496 0 .899.386.899.86 0 .475-.403.86-.899.86z" fill="#337D5A"/></svg>