<svg width="323" height="299" fill="none" xmlns="http://www.w3.org/2000/svg"><path d="M161.2.024c85.917-.79 160.916 64.044 161.2 148.736.283 81.667-69.187 149.92-160.775 150.052C67.769 299.075.142 228.849 0 149.549-.142 65.515 74.433-.765 161.2.024zm53.733 191.739c1.702 1.052 1.985 1.447 2.411 1.578 26.512 5.392 52.457 3.814 78.26-4.076 3.686-1.184 5.104-3.551 5.813-6.707 6.38-24.198 5.955-48.132-1.701-71.936-1.135-3.55-2.694-4.997-6.947-4.076-18.006 4.076-36.437 4.866-54.868 3.156-4.962-.395-7.089.789-8.932 4.866-5.104 12.099-11.909 23.277-20.699 33.534-.851 1.053-1.276 2.499-2.269 4.34 12.051-.131 21.125 3.683 24.102 14.203 3.261 11.836-2.41 20.121-15.17 25.118zM17.155 137.845c-.283 3.024-.85 5.392-.709 7.627.71 9.6 1.843 19.201 2.552 28.801.284 4.866 3.12 7.101 7.798 8.811 35.586 12.493 71.03 12.493 106.474-.263 3.828-1.447 7.514-3.288 11.909-5.129-1.559-1.578-2.41-2.63-3.402-3.419-10.634-8.548-19.424-18.412-27.363-29.195-4.112-5.524-4.112-5.524-11.484-3.945-18.856 3.945-37.854 4.602-56.994 1.972-9.216-1.315-18.431-3.288-28.78-5.26zm199.763 135.454c-1.701-1.315-2.268-1.841-2.835-2.104-20.983-6.444-32.609-20.384-35.586-40.242-1.418-9.863-.993-19.989-.851-30.116 0-2.761-.425-4.471-3.119-5.786-4.537-2.236-8.932-6.181-13.61-6.575-4.254-.263-8.932 3.419-13.327 5.26-.426.132-.851.395-1.276.526-2.978 1.052-3.403 2.893-3.403 5.655.142 8.548.709 17.096-.567 25.513-3.261 21.173-14.887 36.559-38.28 42.608-1.418.395-2.694 1.184-5.246 2.368 39.414 16.438 77.977 17.359 118.1 2.893zM27.93 199.917c.85 2.63 1.134 3.945 1.701 5.129 7.515 15.386 18.29 28.274 30.624 40.636 7.94 8.022 17.155 9.995 27.93 9.469 20.983-1.052 33.601-10.784 37.571-29.458 1.559-7.628 2.977-15.387 0-23.803-32.467 8.153-64.508 7.759-97.826-1.973zm263.563 6.707c-17.297 4.077-33.176 5.392-49.197 4.997-16.304-.394-31.9-3.682-48.346-8.153-.85 11.572-1.276 21.83 2.552 32.088 4.254 11.178 12.051 18.937 24.528 21.436 6.521 1.315 13.61 1.315 20.274 1.183 2.977-.131 6.38-1.446 8.932-3.156 16.304-11.573 29.064-26.17 38.988-42.74.709-1.447 1.134-2.893 2.269-5.655zM198.629 84.058c24.244 13.282 76.559 14.203 91.729 6.05-10.491-23.672-39.413-50.763-64.791-60.1-3.687 9.074-6.947 18.41-11.343 27.353-4.536 8.943-10.207 17.491-15.595 26.697zM90.029 33.69C54.158 48.945 21.975 94.71 20.982 121.8c13.894 5.786 37.287 8.942 44.093 6.049-.851-.526-1.56-1.183-2.269-1.709-9.499-7.102-11.767-17.36-5.954-26.17 6.096-9.206 17.438-11.837 28.497-6.84 1.56.658 3.119 1.316 5.954 2.5-4.82-21.173-4.537-41.031-1.276-61.941zm37.854 100.999c.283.92.283 1.709.567 2.104 8.081 11.441 18.147 21.304 29.489 29.984 2.836 2.235 4.962 1.183 7.514-.526 20.983-14.335 36.579-32.614 47.212-54.708.709-1.578 1.134-3.156 1.701-5.129-7.656-2.63-15.028-4.603-21.975-7.627-4.537-1.973-7.089-1.052-10.35 1.972-14.745 13.677-31.616 24.329-50.756 31.825-1.276.526-2.268 1.447-3.402 2.105zm43.1-45.765c-26.654-15.65-46.361-36.034-61.248-60.889-9.499 31.957-6.522 62.467 8.932 92.714 19.849-7.233 36.862-17.096 52.316-31.825zm27.221-37.875c4.962-6.838 7.514-14.466 9.782-22.225 1.702-5.918 1.56-6.18-4.678-7.89-22.259-6.313-44.943-7.365-67.769-3.814-3.261.526-6.522 1.71-10.492 2.761 8.648 15.913 19.14 29.195 33.318 39.98-4.112-9.864-4.679-19.07 4.536-26.434 6.664-5.392 14.745-6.05 22.543-2.762 9.215 3.814 12.618 11.178 12.76 20.384zm-6.238 124.539c5.387 3.945 11.342 5.786 17.722 5.918 4.395.131 7.514-2.367 9.215-6.181 1.56-3.682.284-6.839-2.694-9.6-3.119-2.894-6.805-3.025-10.491-1.447-5.529 2.499-10.208 6.049-13.752 11.31zM180.482 65.12c3.402-6.312 7.656-11.967 5.387-19.2-1.559-5.129-7.23-7.759-12.051-6.18-5.671 1.84-8.365 6.838-5.954 11.966 2.552 5.524 6.521 9.995 12.618 13.414zm-90.028 54.314c-1.418-6.444-3.687-11.573-8.082-15.65-3.26-2.893-7.514-3.551-11.058-1.841-3.545 1.71-5.813 4.34-5.53 8.416.142 4.209 2.41 6.97 6.664 8.286 5.53 1.709 11.342 1.972 18.006.789z" fill="#fff" fill-opacity=".08"/></svg>