<svg width="67" height="76" fill="none" xmlns="http://www.w3.org/2000/svg"><path d="M10.498 31.445c1.692-4.367 3.756-8.484 6.763-12.083 5.199-6.225 11.819-9.1 19.877-8.478 2.059.15 3.981-.041 5.64-1.529.992-.893 2.102-.61 2.765.568.504.898.89 1.842 1.374 2.75.859 1.641 2.063 3.024 3.53 4.138 7.478 5.564 9.948 13.136 8.057 22.132-1.94 9.236-6.32 17.313-12.963 24.017-4.514 4.553-9.983 6.812-16.435 6.028-1.585-.19-3.146-.648-4.702-1.019-1.085-.257-2.148-.627-3.243-.905-7.452-1.873-11.61-6.798-12.993-14.266-.794-4.32-.467-8.63.357-12.903.546-2.839 1.3-5.639 1.973-8.45zm32.883-19.763c-.091-.032-.167-.058-.253-.105-1.869 1.259-3.96 1.443-6.115 1.277-3.731-.284-7.344.213-10.746 1.867-4.7 2.252-8.025 5.93-10.583 10.39-3.083 5.38-4.763 11.23-5.603 17.357-.592 4.337-.628 8.643.794 12.821 1.791 5.27 5.292 8.71 10.801 9.855.32.06.851-.048 1.018-.282 1.918-2.671 3.147-5.564 3.132-8.942-.034-5.33.973-10.468 3.637-15.133 1.636-2.89 3.5-5.648 5.403-8.375 3.217-4.592 6.181-9.29 7.434-14.842.445-1.962.722-3.93 1.08-5.888zM24.465 65.84c.247.12.403.21.57.267 6.152 1.988 11.89 1.303 17.14-2.72 3.073-2.371 5.474-5.355 7.514-8.62 3.18-5.121 5.896-10.474 7.02-16.484 1.482-8.07-.59-14.832-7.302-19.804a14.854 14.854 0 01-3.79-4.125c-.154-.243-.308-.486-.526-.837-.071.302-.124.456-.142.604-.638 4.373-1.823 8.606-4.086 12.413a119.774 119.774 0 01-6.282 9.53c-4.475 6.151-7.005 12.876-6.817 20.548.016.883-.157 1.77-.33 2.656-.472 2.382-1.59 4.47-2.97 6.572z" fill="#fff"/><path d="M18.957 35.217c.285-1.209.54-2.428.84-3.631 1.104-4.296 3.49-7.63 7.31-9.895.71-.424 1.32-.315 1.616.201.307.537.069 1.074-.646 1.513-3.723 2.231-5.81 5.583-6.638 9.82-.702 3.627-2.136 6.914-4.525 9.764-.24.296-.504.565-.793.809-.485.416-1.005.44-1.435-.036-.404-.45-.35-.948.09-1.38 1.526-1.499 2.6-3.31 3.416-5.263.265-.613.444-1.274.668-1.918.036-.005.067.006.097.016zM36.25 22.965c-1.037 2.34-2.415 4.39-4.005 6.315-.493.585-1.09.687-1.536.256-.506-.503-.375-1.025.035-1.52 1.35-1.628 2.606-3.325 3.321-5.33.347-.946.486-1.982.61-2.971.081-.626.257-1.08.904-1.13.678-.04 1.099.365 1.052 1.037-.064 1.113-.246 2.22-.382 3.343zM22.823 51.587c-.79 1.927-1.757 3.725-3.082 5.328-.14.158-.285.331-.44.483-.446.448-.946.566-1.423.124-.491-.446-.411-.969-.012-1.432 2.123-2.427 3.351-5.269 3.796-8.452.086-.59.448-.945 1.058-.888.626.063.975.477.873 1.113-.235 1.26-.51 2.49-.77 3.724zm27.264-5.44c-1.463 4.102-3.288 6.994-6.345 8.976a6.253 6.253 0 01-1.427.724c-.507.185-1.048-.02-1.151-.556-.06-.365.119-1.025.386-1.156 4.77-2.503 6.528-6.864 7.354-11.825a1.19 1.19 0 01.05-.24c.111-.616.454-1.013 1.104-.924.665.094.948.554.814 1.23a238.1 238.1 0 00-.785 3.77zm-13.745 9.547a28.177 28.177 0 01-3.685 7.01c-.36.495-.792.757-1.382.449-.505-.262-.62-.715-.438-1.237.07-.2.23-.367.355-.53 2.332-3.421 4.032-7.08 4.372-11.28.039-.503.032-1.022.04-1.535.012-.667.269-1.112.971-1.125.718-.008.96.472.99 1.12.05 2.202-.307 4.35-.988 6.452l-.235.676zm10.846-25.907c-1.518 3.377-1.989 6.93-1.597 10.595.084.786-.21 1.286-.821 1.331-.755.064-1.052-.4-1.128-1.064-.46-3.911.057-7.69 1.599-11.334.058-.117.13-.23.194-.363.29-.587.73-.778 1.322-.52.52.216.69.757.43 1.355z" fill="#fff"/></svg>